<?xml version="1.0" encoding="UTF-8" standalone="no"?>
<svg
   xmlns:dc="http://purl.org/dc/elements/1.1/"
   xmlns:cc="http://creativecommons.org/ns#"
   xmlns:rdf="http://www.w3.org/1999/02/22-rdf-syntax-ns#"
   xmlns:svg="http://www.w3.org/2000/svg"
   xmlns="http://www.w3.org/2000/svg"
   xmlns:xlink="http://www.w3.org/1999/xlink"
   xmlns:sodipodi="http://sodipodi.sourceforge.net/DTD/sodipodi-0.dtd"
   xmlns:inkscape="http://www.inkscape.org/namespaces/inkscape"
   version="1.1"
   id="svg833"
   xml:space="preserve"
   width="666.66669"
   height="666.66669"
   viewBox="0 0 666.66669 666.66669"
   sodipodi:docname="Logo.svg"
   inkscape:version="1.0.1 (3bc2e813f5, 2020-09-07)"><metadata
     id="metadata839"><rdf:RDF><cc:Work
         rdf:about=""><dc:format>image/svg+xml</dc:format><dc:type
           rdf:resource="http://purl.org/dc/dcmitype/StillImage" /><dc:title /></cc:Work></rdf:RDF></metadata><defs
     id="defs837"><linearGradient
       inkscape:collect="always"
       id="linearGradient1489"><stop
         style="stop-color:#00a7d9;stop-opacity:1;"
         offset="0"
         id="stop1485" /><stop
         style="stop-color:#00234b;stop-opacity:1"
         offset="1"
         id="stop1487" /></linearGradient><clipPath
       clipPathUnits="userSpaceOnUse"
       id="clipPath863"><path
         d="M 227.408,406.991 139.79,319.372 c -12.462,-12.461 -12.462,-32.73 0,-45.192 v 0 l 87.618,-87.62 c 6.225,-6.223 14.405,-9.336 22.597,-9.336 v 0 c 8.18,0 16.372,3.113 22.597,9.336 v 0 l 87.605,87.62 c 6.237,6.224 9.349,14.417 9.349,22.596 v 0 c 0,8.18 -3.112,16.372 -9.349,22.596 v 0 l -87.605,87.619 c -6.038,6.025 -14.059,9.35 -22.597,9.35 v 0 c -8.539,0 -16.571,-3.325 -22.597,-9.35 m 10.335,-210.083 -87.606,87.605 c -6.756,6.77 -6.756,17.756 0,24.513 v 0 l 87.606,87.618 c 3.285,3.272 7.634,5.066 12.262,5.066 v 0 c 4.627,0 8.977,-1.794 12.249,-5.066 v 0 l 87.619,-87.618 c 6.756,-6.757 6.756,-17.743 0,-24.499 v 0 l -87.619,-87.619 c -3.259,-3.271 -7.622,-5.068 -12.249,-5.068 v 0 c -4.642,0 -8.99,1.797 -12.262,5.068"
         id="path861" /></clipPath><linearGradient
       x1="0"
       y1="0"
       x2="1"
       y2="0"
       gradientUnits="userSpaceOnUse"
       gradientTransform="matrix(-65.194946,-181.55008,-181.55008,65.194946,284.98926,394.20999)"
       spreadMethod="pad"
       id="linearGradient875"><stop
         style="stop-opacity:1;stop-color:#554a7a"
         offset="0"
         id="stop869" /><stop
         style="stop-opacity:1;stop-color:#241e36"
         offset="0.8053994"
         id="stop871" /><stop
         style="stop-opacity:1;stop-color:#241e36"
         offset="1"
         id="stop873" /></linearGradient><clipPath
       clipPathUnits="userSpaceOnUse"
       id="clipPath885"><path
         d="m 314.568,377.677 c 17.682,0.077 19.803,-15.141 17.391,-27.411 v 0 c -4.654,-23.685 -26.39,-37.983 -62.629,-68.596 v 0 c -15.737,-13.294 -29.87,-36.481 -13.033,-64.942 v 0 c 6.602,13.479 26.893,29.183 58.352,56.408 v 0 c 30.485,26.381 40.833,41.595 41.743,66.813 v 0 c 0.853,23.661 -14.757,42.514 -42.152,45.207 v 0 z"
         id="path883" /></clipPath><linearGradient
       x1="1.0660239"
       y1="-0.0032312539"
       x2="-0.00051314017"
       y2="0.13075031"
       gradientUnits="userSpaceOnUse"
       gradientTransform="matrix(95.718536,100.29822,100.29822,-95.718536,242.02095,252.18024)"
       spreadMethod="pad"
       id="linearGradient897"><stop
         style="stop-opacity:1;stop-color:#4d4d4d"
         offset="0"
         id="stop891" /><stop
         style="stop-opacity:1;stop-color:#00a7d9"
         offset="0.69425642"
         id="stop893" /><stop
         style="stop-opacity:1;stop-color:#00a7d9"
         offset="1"
         id="stop895" /></linearGradient><clipPath
       clipPathUnits="userSpaceOnUse"
       id="clipPath907"><path
         d="m 250.403,416.327 c 3.406,-0.027 6.704,-0.598 9.843,-1.662 v 0 c 12.529,7.861 24.113,5.878 28.009,-1.011 v 0 c 7.474,-13.167 -4.734,-27.478 -31.627,-48.078 v 0 C 206.05,326.821 153.875,297.162 148.076,248.804 v 0 c -6.145,-51.231 44.74,-80.41 79.253,-62.164 v 0 l -5.014,5.015 c -21.532,-9.031 -42.374,8.006 -39.287,33.302 v 0 c 3.75,30.684 48.809,53.651 97.912,96.224 v 0 c 49.117,42.559 41.934,81.195 25.429,96.702 v 0 c -5.612,5.283 -15.394,9.986 -26.717,9.986 v 0 c -9.204,-0.001 -19.427,-3.11 -29.249,-11.542"
         id="path905" /></clipPath><linearGradient
       x1="-2.220446e-16"
       y1="2.220446e-16"
       x2="0.86415923"
       y2="-0.0072952989"
       gradientUnits="userSpaceOnUse"
       gradientTransform="matrix(141.93367,148.72453,148.72453,-141.93367,168.07132,227.30186)"
       spreadMethod="pad"
       id="linearGradient919"><stop
         style="stop-opacity:1;stop-color:#4d4d4d"
         offset="0"
         id="stop913" /><stop
         style="stop-opacity:1;stop-color:#00a7d9"
         offset="0.85714304"
         id="stop915" /><stop
         style="stop-opacity:1;stop-color:#00a7d9"
         offset="1"
         id="stop917" /></linearGradient><clipPath
       clipPathUnits="userSpaceOnUse"
       id="clipPath929"><path
         d="m 331.741,374.591 c 6.366,-7.738 5.323,-19.044 4.133,-25.096 v 0 C 331.67,328.1 315.13,314.438 287.733,291.802 v 0 c -5.016,-4.143 -10.204,-8.427 -15.829,-13.179 v 0 c -11.002,-9.295 -26.736,-28.139 -15.311,-53.809 v 0 c 7.468,10.279 21.153,21.976 40.171,38.227 v 0 c 4.75,4.059 9.845,8.413 15.275,13.111 v 0 c 30.474,26.374 39.527,40.715 40.365,63.94 v 0 c 0.635,17.594 -8.411,31.272 -23.904,37.582 v 0 c 1.196,-0.883 2.276,-1.911 3.241,-3.083"
         id="path927" /></clipPath><clipPath
       clipPathUnits="userSpaceOnUse"
       id="clipPath937"><path
         d="M -32768,32767 H 32767 V -32768 H -32768 Z"
         id="path935" /></clipPath><linearGradient
       x1="0"
       y1="0"
       x2="1"
       y2="0"
       gradientUnits="userSpaceOnUse"
       gradientTransform="matrix(79.259819,-31.703913,-31.703913,-79.259819,211.73245,333.56906)"
       spreadMethod="pad"
       id="linearGradient945"><stop
         style="stop-opacity:1;stop-color:#ffffff"
         offset="0"
         id="stop939" /><stop
         style="stop-opacity:0;stop-color:#ffffff"
         offset="0.91954023"
         id="stop941" /><stop
         style="stop-opacity:0;stop-color:#ffffff"
         offset="1"
         id="stop943" /></linearGradient><mask
       maskUnits="userSpaceOnUse"
       x="0"
       y="0"
       width="1"
       height="1"
       id="mask947"><g
         id="g957"><g
           clip-path="url(#clipPath937)"
           id="g955"><g
             id="g953"><g
               id="g951"><path
                 d="M -32768,32767 H 32767 V -32768 H -32768 Z"
                 style="fill:url(#linearGradient945);stroke:none"
                 id="path949" /></g></g></g></g></mask><linearGradient
       x1="0"
       y1="0"
       x2="1"
       y2="0"
       gradientUnits="userSpaceOnUse"
       gradientTransform="matrix(79.259819,-31.703913,-31.703913,-79.259819,211.73245,333.56906)"
       spreadMethod="pad"
       id="linearGradient969"><stop
         style="stop-opacity:1;stop-color:#ffffff"
         offset="0"
         id="stop963" /><stop
         style="stop-opacity:1;stop-color:#ffffff"
         offset="0.91954023"
         id="stop965" /><stop
         style="stop-opacity:1;stop-color:#ffffff"
         offset="1"
         id="stop967" /></linearGradient><clipPath
       clipPathUnits="userSpaceOnUse"
       id="clipPath979"><path
         d="m 276.348,423.734 c 6.824,-0.106 12.556,-3.123 15.378,-8.11 v 0 c 9.285,-16.359 -5.617,-32.49 -32.67,-53.216 v 0 c -8.282,-6.345 -16.644,-12.475 -24.73,-18.404 v 0 c -41.662,-30.543 -77.642,-56.921 -82.289,-95.676 v 0 c -2.047,-17.061 2.646,-33.017 13.214,-44.926 v 0 c 10.129,-11.418 24.933,-18.234 39.598,-18.232 v 0 c 1.175,0 2.339,0.041 3.49,0.126 v 0 c -8.049,0.572 -15.388,4.209 -20.856,10.385 v 0 c -6.828,7.713 -9.817,18.281 -8.416,29.76 v 0 c 2.847,23.294 27.187,41.984 58.001,65.646 v 0 c 12.592,9.67 26.862,20.628 41.259,33.109 v 0 c 29.599,25.648 36.146,47.731 36.429,61.739 v 0 c 0.233,11.598 -3.82,22.183 -11.12,29.043 v 0 c -4.573,4.303 -13.274,8.901 -23.984,8.901 v 0 c -1.109,0 -2.211,-0.048 -3.304,-0.145"
         id="path977" /></clipPath><clipPath
       clipPathUnits="userSpaceOnUse"
       id="clipPath987"><path
         d="M -32768,32767 H 32767 V -32768 H -32768 Z"
         id="path985" /></clipPath><linearGradient
       x1="0"
       y1="0"
       x2="1"
       y2="0"
       gradientUnits="userSpaceOnUse"
       gradientTransform="matrix(144.08479,-31.322851,-31.322851,-144.08479,59.150574,344.19534)"
       spreadMethod="pad"
       id="linearGradient995"><stop
         style="stop-opacity:1;stop-color:#ffffff"
         offset="0"
         id="stop989" /><stop
         style="stop-opacity:0;stop-color:#ffffff"
         offset="0.91954023"
         id="stop991" /><stop
         style="stop-opacity:0;stop-color:#ffffff"
         offset="1"
         id="stop993" /></linearGradient><mask
       maskUnits="userSpaceOnUse"
       x="0"
       y="0"
       width="1"
       height="1"
       id="mask997"><g
         id="g1007"><g
           clip-path="url(#clipPath987)"
           id="g1005"><g
             id="g1003"><g
               id="g1001"><path
                 d="M -32768,32767 H 32767 V -32768 H -32768 Z"
                 style="fill:url(#linearGradient995);stroke:none"
                 id="path999" /></g></g></g></g></mask><linearGradient
       x1="0"
       y1="0"
       x2="1"
       y2="0"
       gradientUnits="userSpaceOnUse"
       gradientTransform="matrix(144.08479,-31.322851,-31.322851,-144.08479,59.150574,344.19534)"
       spreadMethod="pad"
       id="linearGradient1019"><stop
         style="stop-opacity:1;stop-color:#ffffff"
         offset="0"
         id="stop1013" /><stop
         style="stop-opacity:1;stop-color:#ffffff"
         offset="0.91954023"
         id="stop1015" /><stop
         style="stop-opacity:1;stop-color:#ffffff"
         offset="1"
         id="stop1017" /></linearGradient><clipPath
       clipPathUnits="userSpaceOnUse"
       id="clipPath1029"><path
         d="m 331.741,374.591 c 6.366,-7.738 5.323,-19.044 4.133,-25.096 v 0 C 331.67,328.1 315.13,314.438 287.733,291.802 v 0 c -5.016,-4.143 -10.204,-8.427 -15.829,-13.179 v 0 c -11.002,-9.295 -26.736,-28.139 -15.311,-53.809 v 0 c 7.468,10.279 21.153,21.976 40.171,38.227 v 0 c 4.75,4.059 9.845,8.413 15.275,13.111 v 0 c 30.474,26.374 39.527,40.715 40.365,63.94 v 0 c 0.635,17.594 -8.411,31.272 -23.904,37.582 v 0 c 1.196,-0.883 2.276,-1.911 3.241,-3.083"
         id="path1027" /></clipPath><clipPath
       clipPathUnits="userSpaceOnUse"
       id="clipPath1037"><path
         d="M -32768,32767 H 32767 V -32768 H -32768 Z"
         id="path1035" /></clipPath><linearGradient
       x1="0"
       y1="0"
       x2="1"
       y2="0"
       gradientUnits="userSpaceOnUse"
       gradientTransform="matrix(-96.437004,5.8858457,5.8858457,96.437004,432.42673,292.70621)"
       spreadMethod="pad"
       id="linearGradient1045"><stop
         style="stop-opacity:1;stop-color:#ffffff"
         offset="0"
         id="stop1039" /><stop
         style="stop-opacity:0;stop-color:#ffffff"
         offset="0.91954023"
         id="stop1041" /><stop
         style="stop-opacity:0;stop-color:#ffffff"
         offset="1"
         id="stop1043" /></linearGradient><mask
       maskUnits="userSpaceOnUse"
       x="0"
       y="0"
       width="1"
       height="1"
       id="mask1047"><g
         id="g1057"><g
           clip-path="url(#clipPath1037)"
           id="g1055"><g
             id="g1053"><g
               id="g1051"><path
                 d="M -32768,32767 H 32767 V -32768 H -32768 Z"
                 style="fill:url(#linearGradient1045);stroke:none"
                 id="path1049" /></g></g></g></g></mask><linearGradient
       x1="0"
       y1="0"
       x2="1"
       y2="0"
       gradientUnits="userSpaceOnUse"
       gradientTransform="matrix(-96.437004,5.8858457,5.8858457,96.437004,432.42673,292.70621)"
       spreadMethod="pad"
       id="linearGradient1069"><stop
         style="stop-opacity:1;stop-color:#ffffff"
         offset="0"
         id="stop1063" /><stop
         style="stop-opacity:1;stop-color:#ffffff"
         offset="0.91954023"
         id="stop1065" /><stop
         style="stop-opacity:1;stop-color:#ffffff"
         offset="1"
         id="stop1067" /></linearGradient><clipPath
       clipPathUnits="userSpaceOnUse"
       id="clipPath1079"><path
         d="m 276.348,423.734 c 6.824,-0.106 12.556,-3.123 15.378,-8.11 v 0 c 9.285,-16.359 -5.617,-32.49 -32.67,-53.216 v 0 c -8.282,-6.345 -16.644,-12.475 -24.73,-18.404 v 0 c -41.662,-30.543 -77.642,-56.921 -82.289,-95.676 v 0 c -2.047,-17.061 2.646,-33.017 13.214,-44.926 v 0 c 10.129,-11.418 24.933,-18.234 39.598,-18.232 v 0 c 1.175,0 2.339,0.041 3.49,0.126 v 0 c -8.049,0.572 -15.388,4.209 -20.856,10.385 v 0 c -6.828,7.713 -9.817,18.281 -8.416,29.76 v 0 c 2.847,23.294 27.187,41.984 58.001,65.646 v 0 c 12.592,9.67 26.862,20.628 41.259,33.109 v 0 c 29.599,25.648 36.146,47.731 36.429,61.739 v 0 c 0.233,11.598 -3.82,22.183 -11.12,29.043 v 0 c -4.573,4.303 -13.274,8.901 -23.984,8.901 v 0 c -1.109,0 -2.211,-0.048 -3.304,-0.145"
         id="path1077" /></clipPath><clipPath
       clipPathUnits="userSpaceOnUse"
       id="clipPath1087"><path
         d="M -32768,32767 H 32767 V -32768 H -32768 Z"
         id="path1085" /></clipPath><linearGradient
       x1="0"
       y1="0"
       x2="1"
       y2="0"
       gradientUnits="userSpaceOnUse"
       gradientTransform="matrix(-108.20898,25.354494,25.354494,108.20898,381.14813,271.82312)"
       spreadMethod="pad"
       id="linearGradient1095"><stop
         style="stop-opacity:1;stop-color:#ffffff"
         offset="0"
         id="stop1089" /><stop
         style="stop-opacity:0;stop-color:#ffffff"
         offset="0.91954023"
         id="stop1091" /><stop
         style="stop-opacity:0;stop-color:#ffffff"
         offset="1"
         id="stop1093" /></linearGradient><mask
       maskUnits="userSpaceOnUse"
       x="0"
       y="0"
       width="1"
       height="1"
       id="mask1097"><g
         id="g1107"><g
           clip-path="url(#clipPath1087)"
           id="g1105"><g
             id="g1103"><g
               id="g1101"><path
                 d="M -32768,32767 H 32767 V -32768 H -32768 Z"
                 style="fill:url(#linearGradient1095);stroke:none"
                 id="path1099" /></g></g></g></g></mask><linearGradient
       x1="0"
       y1="0"
       x2="1"
       y2="0"
       gradientUnits="userSpaceOnUse"
       gradientTransform="matrix(-108.20898,25.354494,25.354494,108.20898,381.14813,271.82312)"
       spreadMethod="pad"
       id="linearGradient1119"><stop
         style="stop-opacity:1;stop-color:#ffffff"
         offset="0"
         id="stop1113" /><stop
         style="stop-opacity:1;stop-color:#ffffff"
         offset="0.91954023"
         id="stop1115" /><stop
         style="stop-opacity:1;stop-color:#ffffff"
         offset="1"
         id="stop1117" /></linearGradient><clipPath
       clipPathUnits="userSpaceOnUse"
       id="clipPath1129"><path
         d="m 229.669,404.73 -87.618,-87.619 c -5.423,-5.423 -8.41,-12.645 -8.41,-20.335 v 0 c 0,-7.691 2.987,-14.912 8.41,-20.336 v 0 l 87.618,-87.619 c 5.418,-5.415 12.64,-8.398 20.337,-8.398 v 0 c 7.695,0 14.917,2.983 20.335,8.398 v 0 l 87.607,87.622 c 5.423,5.413 8.41,12.633 8.41,20.333 v 0 c 0,7.699 -2.987,14.92 -8.412,20.335 v 0 l -87.603,87.616 c -5.44,5.427 -12.662,8.416 -20.337,8.416 v 0 c -7.689,0 -14.911,-2.988 -20.337,-8.413 m 5.813,-210.083 -87.608,87.607 c -7.996,8.012 -7.994,21.036 0.001,29.032 v 0 l 87.611,87.623 c 3.884,3.869 9.04,6 14.52,6 v 0 c 5.485,0 10.639,-2.133 14.508,-6.004 v 0 l 87.62,-87.619 c 3.872,-3.871 6.004,-9.025 6.004,-14.51 v 0 c 0,-5.485 -2.132,-10.638 -6.004,-14.51 v 0 L 264.52,194.651 c -3.859,-3.874 -9.014,-6.007 -14.514,-6.007 v 0 c -5.495,0 -10.653,2.132 -14.524,6.003"
         id="path1127" /></clipPath><clipPath
       clipPathUnits="userSpaceOnUse"
       id="clipPath1137"><path
         d="M -32768,32767 H 32767 V -32768 H -32768 Z"
         id="path1135" /></clipPath><linearGradient
       x1="0"
       y1="0"
       x2="1"
       y2="0"
       gradientUnits="userSpaceOnUse"
       gradientTransform="matrix(120.38983,-34.110466,-34.110466,-120.38983,39.261902,356.49051)"
       spreadMethod="pad"
       id="linearGradient1145"><stop
         style="stop-opacity:1;stop-color:#ffffff"
         offset="0"
         id="stop1139" /><stop
         style="stop-opacity:0;stop-color:#ffffff"
         offset="0.94484915"
         id="stop1141" /><stop
         style="stop-opacity:0;stop-color:#ffffff"
         offset="1"
         id="stop1143" /></linearGradient><mask
       maskUnits="userSpaceOnUse"
       x="0"
       y="0"
       width="1"
       height="1"
       id="mask1147"><g
         id="g1157"><g
           clip-path="url(#clipPath1137)"
           id="g1155"><g
             id="g1153"><g
               id="g1151"><path
                 d="M -32768,32767 H 32767 V -32768 H -32768 Z"
                 style="fill:url(#linearGradient1145);stroke:none"
                 id="path1149" /></g></g></g></g></mask><linearGradient
       x1="0"
       y1="0"
       x2="1"
       y2="0"
       gradientUnits="userSpaceOnUse"
       gradientTransform="matrix(120.38983,-34.110466,-34.110466,-120.38983,39.261902,356.49051)"
       spreadMethod="pad"
       id="linearGradient1169"><stop
         style="stop-opacity:1;stop-color:#ffffff"
         offset="0"
         id="stop1163" /><stop
         style="stop-opacity:1;stop-color:#ffffff"
         offset="0.94484915"
         id="stop1165" /><stop
         style="stop-opacity:1;stop-color:#ffffff"
         offset="1"
         id="stop1167" /></linearGradient><clipPath
       clipPathUnits="userSpaceOnUse"
       id="clipPath1179"><path
         d="m 229.669,404.73 -87.618,-87.619 c -5.423,-5.423 -8.41,-12.645 -8.41,-20.335 v 0 c 0,-7.691 2.987,-14.912 8.41,-20.336 v 0 l 87.618,-87.619 c 5.418,-5.415 12.64,-8.398 20.337,-8.398 v 0 c 7.695,0 14.917,2.983 20.335,8.398 v 0 l 87.607,87.622 c 5.423,5.413 8.41,12.633 8.41,20.333 v 0 c 0,7.699 -2.987,14.92 -8.412,20.335 v 0 l -87.603,87.616 c -5.44,5.427 -12.662,8.416 -20.337,8.416 v 0 c -7.689,0 -14.911,-2.988 -20.337,-8.413 m 5.813,-210.083 -87.608,87.607 c -7.996,8.012 -7.994,21.036 0.001,29.032 v 0 l 87.611,87.623 c 3.884,3.869 9.04,6 14.52,6 v 0 c 5.485,0 10.639,-2.133 14.508,-6.004 v 0 l 87.62,-87.619 c 3.872,-3.871 6.004,-9.025 6.004,-14.51 v 0 c 0,-5.485 -2.132,-10.638 -6.004,-14.51 v 0 L 264.52,194.651 c -3.859,-3.874 -9.014,-6.007 -14.514,-6.007 v 0 c -5.495,0 -10.653,2.132 -14.524,6.003"
         id="path1177" /></clipPath><clipPath
       clipPathUnits="userSpaceOnUse"
       id="clipPath1187"><path
         d="M -32768,32767 H 32767 V -32768 H -32768 Z"
         id="path1185" /></clipPath><linearGradient
       x1="0"
       y1="0"
       x2="1"
       y2="0"
       gradientUnits="userSpaceOnUse"
       gradientTransform="matrix(-109.29821,15.096389,15.096389,109.29821,455.85736,268.34949)"
       spreadMethod="pad"
       id="linearGradient1195"><stop
         style="stop-opacity:1;stop-color:#ffffff"
         offset="0"
         id="stop1189" /><stop
         style="stop-opacity:1;stop-color:#ffffff"
         offset="0.10433591"
         id="stop1191" /><stop
         style="stop-opacity:0;stop-color:#ffffff"
         offset="1"
         id="stop1193" /></linearGradient><mask
       maskUnits="userSpaceOnUse"
       x="0"
       y="0"
       width="1"
       height="1"
       id="mask1197"><g
         id="g1207"><g
           clip-path="url(#clipPath1187)"
           id="g1205"><g
             id="g1203"><g
               id="g1201"><path
                 d="M -32768,32767 H 32767 V -32768 H -32768 Z"
                 style="fill:url(#linearGradient1195);stroke:none"
                 id="path1199" /></g></g></g></g></mask><linearGradient
       x1="0"
       y1="0"
       x2="1"
       y2="0"
       gradientUnits="userSpaceOnUse"
       gradientTransform="matrix(-109.29821,15.096389,15.096389,109.29821,455.85736,268.34949)"
       spreadMethod="pad"
       id="linearGradient1219"><stop
         style="stop-opacity:1;stop-color:#ffffff"
         offset="0"
         id="stop1213" /><stop
         style="stop-opacity:1;stop-color:#ffffff"
         offset="0.10433591"
         id="stop1215" /><stop
         style="stop-opacity:1;stop-color:#ffffff"
         offset="1"
         id="stop1217" /></linearGradient><linearGradient
       inkscape:collect="always"
       xlink:href="#linearGradient1489"
       id="linearGradient1491"
       x1="133.93436"
       y1="-28.318172"
       x2="361.04044"
       y2="-25.8225"
       gradientUnits="userSpaceOnUse" /></defs><sodipodi:namedview
     pagecolor="#ffffff"
     bordercolor="#666666"
     borderopacity="1"
     objecttolerance="10"
     gridtolerance="10"
     guidetolerance="10"
     inkscape:pageopacity="0"
     inkscape:pageshadow="2"
     inkscape:window-width="1920"
     inkscape:window-height="1017"
     id="namedview835"
     showgrid="false"
     inkscape:zoom="0.90156112"
     inkscape:cx="263.80296"
     inkscape:cy="409.1061"
     inkscape:window-x="-8"
     inkscape:window-y="-8"
     inkscape:window-maximized="1"
     inkscape:current-layer="g841"
     inkscape:document-rotation="0" /><g
     id="g841"
     inkscape:groupmode="layer"
     inkscape:label="3410491"
     transform="matrix(1.3333333,0,0,-1.3333333,0,666.66667)"
     style="display:inline"><text
       transform="scale(0.96272529,-1.0387179)"
       style="font-style:normal;font-variant:normal;font-weight:normal;font-stretch:normal;font-size:52.9447px;font-family:sans-serif;-inkscape-font-specification:sans-serif;writing-mode:lr-tb;fill:#00234b;fill-opacity:1;fill-rule:nonzero;stroke:none;stroke-width:1.33707;"
       id="text847"
       x="76.473427"
       y="-57.09827"><tspan
         x="76.473427"
         y="-57.09827"
         sodipodi:role="line"
         id="tspan845"
         style="font-style:normal;font-variant:normal;font-weight:normal;font-stretch:normal;font-family:'Trebuchet MS';-inkscape-font-specification:'Trebuchet MS';stroke-width:1.33707;fill:#00234b;fill-opacity:1;">Minimal</tspan></text><text
       transform="scale(1,-1)"
       style="font-variant:normal;font-weight:900;font-stretch:normal;font-size:54.9947px;font-family:Exo;-inkscape-font-specification:Exo-Black;writing-mode:lr-tb;fill:#00234b;fill-opacity:1;fill-rule:nonzero;stroke:none;stroke-width:1.38884;"
       id="text851"
       x="249.72173"
       y="-59.913414"><tspan
         x="249.72173"
         y="-59.913414"
         sodipodi:role="line"
         id="tspan849"
         style="font-style:normal;font-variant:normal;font-weight:bold;font-stretch:normal;font-family:'Trebuchet MS';-inkscape-font-specification:'Trebuchet MS Bold';stroke-width:1.38884;fill:#00234b;fill-opacity:1;">Design</tspan></text><text
       transform="scale(1,-1)"
       style="font-variant:normal;font-weight:500;font-stretch:normal;font-size:29.2264px;font-family:'Poppins Medium';-inkscape-font-specification:Poppins-Medium;writing-mode:lr-tb;fill:url(#linearGradient1491);fill-opacity:1;fill-rule:nonzero;stroke:none;stroke-width:1.38884"
       id="text855"
       x="121.47668"
       y="-18.707602"><tspan
         x="121.47668"
         y="-18.707602"
         sodipodi:role="line"
         id="tspan853"
         style="font-style:normal;font-variant:normal;font-weight:normal;font-stretch:normal;font-family:'Trebuchet MS';-inkscape-font-specification:'Trebuchet MS';fill:url(#linearGradient1491);stroke-width:1.38884;fill-opacity:1">Built to perfection.</tspan></text><g
       id="g857"
       style="fill:#002f4b;fill-opacity:0.91696757;stroke-width:0.99975;stroke-miterlimit:4;stroke-dasharray:none;opacity:1"
       transform="matrix(1.3888417,0,0,1.3888417,-101.3792,-103.14964)"><g
         id="g859"
         clip-path="url(#clipPath863)"
         style="fill:#002f4b;fill-opacity:0.91696757;stroke-width:0.99975;stroke-miterlimit:4;stroke-dasharray:none"><g
           id="g865"
           style="fill:#002f4b;fill-opacity:0.91696757;stroke-width:0.99975;stroke-miterlimit:4;stroke-dasharray:none"><g
             id="g867"
             style="fill:#002f4b;fill-opacity:0.91696757;stroke-width:0.99975;stroke-miterlimit:4;stroke-dasharray:none"><path
               d="M 227.408,406.991 139.79,319.372 c -12.462,-12.461 -12.462,-32.73 0,-45.192 v 0 l 87.618,-87.62 c 6.225,-6.223 14.405,-9.336 22.597,-9.336 v 0 c 8.18,0 16.372,3.113 22.597,9.336 v 0 l 87.605,87.62 c 6.237,6.224 9.349,14.417 9.349,22.596 v 0 c 0,8.18 -3.112,16.372 -9.349,22.596 v 0 l -87.605,87.619 c -6.038,6.025 -14.059,9.35 -22.597,9.35 v 0 c -8.539,0 -16.571,-3.325 -22.597,-9.35 m 10.335,-210.083 -87.606,87.605 c -6.756,6.77 -6.756,17.756 0,24.513 v 0 l 87.606,87.618 c 3.285,3.272 7.634,5.066 12.262,5.066 v 0 c 4.627,0 8.977,-1.794 12.249,-5.066 v 0 l 87.619,-87.618 c 6.756,-6.757 6.756,-17.743 0,-24.499 v 0 l -87.619,-87.619 c -3.259,-3.271 -7.622,-5.068 -12.249,-5.068 v 0 c -4.642,0 -8.99,1.797 -12.262,5.068"
               style="fill:#002f4b;fill-opacity:0.91696757;stroke:none;stroke-width:0.99975;stroke-miterlimit:4;stroke-dasharray:none"
               id="path877" /></g></g></g></g><g
       id="g879"
       style="opacity:0.5;"
       transform="matrix(1.3888417,0,0,1.3888417,-101.3792,-103.14964)"><g
         id="g881"
         clip-path="url(#clipPath885)"><g
           id="g887"><g
             id="g889"><path
               d="m 314.568,377.677 c 17.682,0.077 19.803,-15.141 17.391,-27.411 v 0 c -4.654,-23.685 -26.39,-37.983 -62.629,-68.596 v 0 c -15.737,-13.294 -29.87,-36.481 -13.033,-64.942 v 0 c 6.602,13.479 26.893,29.183 58.352,56.408 v 0 c 30.485,26.381 40.833,41.595 41.743,66.813 v 0 c 0.853,23.661 -14.757,42.514 -42.152,45.207 v 0 z"
               style="fill:url(#linearGradient897);stroke:none;fill-opacity:1"
               id="path899" /></g></g></g></g><g
       id="g901"
       style="opacity:0.5"
       transform="matrix(1.3888417,0,0,1.3888417,-101.3792,-103.14964)"><g
         id="g903"
         clip-path="url(#clipPath907)"><g
           id="g909"><g
             id="g911"><path
               d="m 250.403,416.327 c 3.406,-0.027 6.704,-0.598 9.843,-1.662 v 0 c 12.529,7.861 24.113,5.878 28.009,-1.011 v 0 c 7.474,-13.167 -4.734,-27.478 -31.627,-48.078 v 0 C 206.05,326.821 153.875,297.162 148.076,248.804 v 0 c -6.145,-51.231 44.74,-80.41 79.253,-62.164 v 0 l -5.014,5.015 c -21.532,-9.031 -42.374,8.006 -39.287,33.302 v 0 c 3.75,30.684 48.809,53.651 97.912,96.224 v 0 c 49.117,42.559 41.934,81.195 25.429,96.702 v 0 c -5.612,5.283 -15.394,9.986 -26.717,9.986 v 0 c -9.204,-0.001 -19.427,-3.11 -29.249,-11.542"
               style="fill:url(#linearGradient919);stroke:none"
               id="path921" /></g></g></g></g></g></svg>
