<?xml version="1.0" encoding="UTF-8" standalone="no"?>
<svg
   xmlns:dc="http://purl.org/dc/elements/1.1/"
   xmlns:cc="http://creativecommons.org/ns#"
   xmlns:rdf="http://www.w3.org/1999/02/22-rdf-syntax-ns#"
   xmlns:svg="http://www.w3.org/2000/svg"
   xmlns="http://www.w3.org/2000/svg"
   xmlns:xlink="http://www.w3.org/1999/xlink"
   xmlns:sodipodi="http://sodipodi.sourceforge.net/DTD/sodipodi-0.dtd"
   xmlns:inkscape="http://www.inkscape.org/namespaces/inkscape"
   width="210mm"
   height="297mm"
   viewBox="0 0 210 297"
   version="1.1"
   id="svg869"
   inkscape:version="1.0.1 (3bc2e813f5, 2020-09-07)"
   sodipodi:docname="ME.svg">
  <defs
     id="defs863">
    <clipPath
       clipPathUnits="userSpaceOnUse"
       id="clipPath1879">
      <path
         style="fill:none;stroke:#000000;stroke-width:0.264583px;stroke-linecap:butt;stroke-linejoin:miter;stroke-opacity:1"
         d="m 215.68266,339.04465 c 0,0 -0.80666,-0.96642 -0.89769,-1.55916 -0.25461,-1.65804 0.87685,-3.2494 1.08668,-4.91369 0.18052,-1.43184 0.0976,-2.88472 0.14363,-4.32718 0.0126,-0.39505 0.0658,-0.79105 0.0363,-1.18522 -0.0224,-0.29959 -0.081,-0.59725 -0.16132,-0.8867 -0.077,-0.27723 -0.18215,-0.54732 -0.30542,-0.80727 -0.82189,-1.73337 -2.52508,-3.09788 -2.87871,-4.98335 -0.0702,-0.37415 0.11605,-0.75242 0.17408,-1.12863 l 0.60135,-0.0668 c 0,0 0.51102,-1.93855 0.73647,-2.91507 0.15564,-0.67416 0.33293,-1.34591 0.42523,-2.03161 0.17155,-1.27447 0.12668,-2.56934 0.23623,-3.85064 0.0524,-0.6124 0.24465,-1.21978 0.20115,-1.83287 -0.0595,-0.83855 -0.62637,-2.44298 -0.62637,-2.44298 0,0 0.77623,-0.30977 1.03943,-0.6142 0.60101,-0.69522 0.71293,-1.69434 1.04467,-2.55135 0.32756,-0.84619 0.68467,-1.68447 0.93348,-2.55707 0.14579,-0.51133 0.40164,-1.03531 0.32549,-1.56152 -0.14579,-1.00745 -1.44508,-2.69023 -1.44508,-2.69023 0,0 0.73249,-0.63648 1.11722,-0.9316 0.7264,-0.55721 1.64219,-0.89291 2.24542,-1.58157 0.35327,-0.4033 0.59845,-0.90979 0.74498,-1.42552 0.13195,-0.4644 0.0344,-0.96689 0.10432,-1.44457 0.0446,-0.30478 0.0573,-0.62934 0.20046,-0.90205 0.19782,-0.37674 0.58777,-0.61576 0.86862,-0.93543 0.67854,-0.77229 1.97112,-2.37202 1.97112,-2.37202 0,0 -0.0941,-3.38547 -0.0668,-5.07812 0.0237,-1.47129 0.38508,-2.95008 0.20045,-4.40994 -0.17391,-1.37504 -0.99138,-2.60837 -1.21697,-3.9759 -0.19238,-1.16617 -0.24307,-2.37021 -0.1062,-3.54422 0.13382,-1.14782 0.8982,-3.34844 0.8982,-3.34844 0,0 0.30815,0.50417 0.56696,0.54335 0.26115,0.0395 0.5107,-0.17957 0.70871,-0.35435 0.17027,-0.15034 0.27543,-0.36428 0.37797,-0.56695 0.16644,-0.32899 0.3158,-0.67604 0.37798,-1.03944 0.20898,-1.22126 0.0313,-2.47968 -0.0365,-3.71682 -0.049,-0.894 -0.13805,-1.78673 -0.26727,-2.6727 -0.0851,-0.58352 -0.26595,-1.15151 -0.33409,-1.73725 -0.0618,-0.53142 -0.0465,-1.069 -0.0668,-1.60362 -0.0365,-0.9614 -0.0859,-1.92258 -0.0986,-2.88458 -0.0136,-1.02362 -0.0385,-2.04922 0.0236,-3.07105 0.0337,-0.55378 0.14242,-1.1008 0.18899,-1.65365 0.12181,-1.44593 0.17188,-2.89711 0.23623,-4.34673 0.0203,-0.45654 0.10836,-0.91728 0.0472,-1.37016 -0.0707,-0.52325 -0.29966,-1.01298 -0.47247,-1.5119 -0.11583,-0.33442 -0.31393,-0.64412 -0.37798,-0.99219 -0.37055,-2.01356 0,-6.14211 0,-6.14211 0,0 1.2705,-1.28621 1.84264,-1.98438 0.52916,-0.64572 1.02957,-1.31911 1.46466,-2.03162 0.4515,-0.73938 0.80433,-1.53502 1.18117,-2.3151 0.34641,-0.71709 0.65562,-1.45161 0.99219,-2.17337 0.30963,-0.66398 0.81332,-1.26367 0.94494,-1.98437 0.0681,-0.37312 -0.0945,-1.13393 -0.0945,-1.13393 0,0 2.89818,-3.55411 4.39398,-5.29167 0.89509,-1.03977 2.74033,-3.07106 2.74033,-3.07106 l 0.0945,1.03944 c 0,0 0.64756,-0.15113 0.97785,-0.17277 0.49381,-0.0324 1.00831,0.20463 1.48317,0.0653 0.22236,-0.0652 0.35307,-0.31416 0.56795,-0.4009 0.27165,-0.10965 0.63529,0.0435 0.86862,-0.13364 0.40889,-0.31039 0.37024,-0.96322 0.63477,-1.40316 0.15955,-0.26535 0.34392,-0.52128 0.56795,-0.73499 0.19672,-0.18766 0.46842,-0.2833 0.66817,-0.46773 0.2441,-0.22537 0.63477,-0.7684 0.63477,-0.7684 0,0 0.97599,0.22362 1.46998,0.20046 0.34268,-0.0161 0.71079,-0.0529 1.00226,-0.23386 0.20837,-0.12935 0.37774,-0.3398 0.46772,-0.56795 0.0655,-0.16608 0.069,-0.35959 0.0334,-0.53454 -0.0397,-0.19522 -0.11397,-0.40732 -0.26727,-0.53454 -0.12477,-0.10355 -0.46772,-0.13363 -0.46772,-0.13363 0,0 0.9205,-0.0844 1.33635,-0.26727 0.32828,-0.14434 0.57752,-0.42533 0.86862,-0.63477 0.26586,-0.19129 0.59246,-0.31607 0.80181,-0.56795 0.10192,-0.12262 0.13138,-0.2906 0.20045,-0.43431 0.11866,-0.24688 0.24956,-0.48777 0.3675,-0.73499 0.0579,-0.12145 0.16704,-0.3675 0.16704,-0.3675 v 0 l 1.03567,-1.03567 v 0 c 0,0 0.35554,-0.60184 0.53454,-0.90203 0.13303,-0.22309 0.27366,-0.44174 0.4009,-0.66818 0.24645,-0.43861 0.55915,-0.85382 0.70159,-1.33634 0.1393,-0.47188 0.15987,-0.97867 0.13363,-1.46998 -0.0151,-0.28352 -0.0397,-0.58146 -0.16704,-0.83522 -0.0672,-0.13391 -0.18405,-0.24005 -0.30068,-0.33409 -0.0699,-0.0563 -0.18624,-0.0575 -0.23386,-0.13363 -0.26641,-0.42577 0.0973,-1.04164 -0.10023,-1.5034 -0.0713,-0.16667 -0.30177,-0.23195 -0.36749,-0.4009 -0.14534,-0.37363 0.0921,-0.81253 0,-1.20271 -0.04,-0.16965 -0.18414,-0.30065 -0.23386,-0.46772 -0.0831,-0.27936 -0.0134,-0.59039 -0.10023,-0.86863 -0.0564,-0.18072 -0.23419,-0.31473 -0.26727,-0.50113 -0.0845,-0.47606 0.13082,-0.95811 0.20045,-1.43657 0.0535,-0.36782 0.16705,-1.10249 0.16705,-1.10249 0,0 0.80364,-0.8078 1.06907,-1.30294 0.26962,-0.50296 0.40814,-1.07398 0.50113,-1.63702 0.0599,-0.36275 0.0952,-0.74005 0.0334,-1.10249 -0.16647,-0.97654 -0.7305,-1.84195 -1.06907,-2.77292 -0.15286,-0.42032 -0.25813,-0.85844 -0.43432,-1.26953 -0.23742,-0.55396 -0.83521,-1.60362 -0.83521,-1.60362 l 0.13363,-1.00225 c 0.0668,-0.34523 0.13363,-0.69046 0.20045,-1.03568 l -0.33408,-1.30294 v 0 l -0.53454,-13.22984 -0.63477,-9.6217 c 0.15591,-1.20271 0.31181,-2.40543 0.46772,-3.60814 0.0334,-0.86863 0.0668,-1.73725 0.10023,-2.60588 l -0.3675,-1.40317 c 0.28954,-1.06908 0.57909,-2.13815 0.86863,-3.20723 0.0668,-1.20271 0.13363,-2.40543 0.20045,-3.60814 -0.10023,-0.86862 -0.20045,-1.73725 -0.30068,-2.60587 -0.0334,-0.92431 -0.0668,-1.84862 -0.10022,-2.77293 0,0 0.1671,-2.5891 -0.10023,-3.842 -0.40523,-1.89923 -1.46975,-3.59539 -2.23838,-5.37879 -1.38511,-3.21379 -2.75227,-6.43803 -4.27631,-9.5883 -1.44472,-2.98629 -2.71529,-6.09708 -4.6104,-8.8199 -1.76567,-2.53684 -3.91744,-4.81364 -6.21402,-6.88218 -0.98311,-0.88549 -2.15415,-1.537596 -3.20723,-2.338614 -0.65614,-0.499086 -1.18155,-1.208415 -1.93771,-1.5368 -0.41315,-0.179425 -0.94957,0.0304 -1.33635,-0.200451 -0.57375,-0.342437 -0.69343,-1.17108 -1.20271,-1.603619 -0.88079,-0.748064 -2.0445,-1.077925 -3.0736,-1.603615 -0.53221,-0.271868 -1.08809,-0.499473 -1.60361,-0.80181 -0.58083,-0.34064 -1.12494,-0.741135 -1.67044,-1.135896 -0.59187,-0.428315 -1.09979,-0.979402 -1.73725,-1.336346 -0.70738,-0.396098 -1.51047,-0.589915 -2.27179,-0.868628 -0.44318,-0.162245 -0.93957,-0.21219 -1.33635,-0.467719 -0.59598,-0.383813 -0.88615,-1.134743 -1.46998,-1.536801 -0.37816,-0.260421 -0.82703,-0.411972 -1.26953,-0.534538 -0.15178,-0.04204 -0.46772,-0.06682 -0.46772,-0.06682 0,0 -0.0882,-0.708872 -0.20761,-1.042432 -0.12946,-0.361516 -0.30226,-0.716918 -0.54334,-1.01581 -0.12976,-0.160885 -0.35386,-0.23232 -0.47247,-0.4016 -1.107,-1.579965 -1.08242,-3.737044 -2.01722,-5.424609 -0.17701,-0.319545 -0.36495,-0.664933 -0.66818,-0.868625 -0.4889,-0.328408 -1.1159,-0.433131 -1.70384,-0.467722 -0.7421,-0.04366 -1.47422,0.197697 -2.20498,0.334089 -0.40371,0.07535 -0.79794,0.336733 -1.20271,0.267269 -0.20709,-0.03554 -0.53454,-0.334089 -0.53454,-0.334089 0,0 -0.72835,-4.852877 -0.16726,-7.180271 0.10075,-0.417893 0.50298,-0.718706 0.61421,-1.13393 0.15084,-0.563073 -0.0798,-1.179229 0.0473,-1.748139 0.06,-0.26843 0.24577,-0.494358 0.33072,-0.755954 0.10931,-0.336577 0.1742,-0.687163 0.22715,-1.037061 0.0523,-0.345707 0.0199,-0.702371 0.0888,-1.045165 0.0602,-0.29954 0.22929,-0.571302 0.28116,-0.872392 0.0844,-0.489977 0.0439,-1.490943 0.0439,-1.490943 0,0 0.60296,-0.26828 0.90343,-0.40467 0.32065,-0.14555 0.73857,-0.167441 0.95977,-0.441433 0.0912,-0.112977 0.005,-0.310777 0.0945,-0.425223 0.2384,-0.305329 0.73514,-0.279992 1.03943,-0.519718 0.30729,-0.242094 0.51994,-0.585713 0.75595,-0.897694 0.35577,-0.470284 0.72004,-0.94152 0.99219,-1.464657 0.16334,-0.313973 0.25285,-0.661133 0.37798,-0.992187 0.0951,-0.251738 0.20468,-0.498629 0.28348,-0.755952 0.11856,-0.387162 0.16686,-0.79343 0.28348,-1.181177 0.21237,-0.706104 0.54312,-1.372904 0.75595,-2.078868 0.13562,-0.449842 0.24229,-0.908725 0.33073,-1.370163 0.0838,-0.437486 0.12868,-0.881571 0.18899,-1.322917 0.0495,-0.361934 0.10295,-0.723453 0.14174,-1.086683 0.0445,-0.416349 0.19482,-0.843021 0.10422,-1.251816 -0.0635,-0.286755 -0.28001,-0.516916 -0.43727,-0.764984 -0.14556,-0.229619 -0.36354,-0.417058 -0.46772,-0.668174 -0.10525,-0.253703 -0.16476,-0.537413 -0.14412,-0.811305 0.0208,-0.276156 0.1967,-0.518935 0.26628,-0.78699 0.0748,-0.288057 0.15557,-0.580572 0.16132,-0.878123 0.003,-0.171132 -0.0793,-0.337193 -0.0732,-0.508251 0.007,-0.185227 0.0579,-0.368041 0.11811,-0.54334 0.0972,-0.283115 0.31831,-0.518634 0.38848,-0.809628 0.042,-0.174043 -0.0305,-0.363485 0.0139,-0.536914 0.0628,-0.245295 0.30217,-0.426246 0.34792,-0.675296 0.035,-0.190285 -0.0429,-0.38455 -0.0651,-0.576749 -0.0309,-0.267806 -0.12732,-0.535625 -0.0945,-0.803198 0.0461,-0.375978 0.39943,-0.684271 0.4016,-1.063059 0.002,-0.428067 -0.37051,-0.78409 -0.44004,-1.206479 -0.1504,-0.913654 0.0415,-1.85144 0.0651,-2.777093 0.0151,-0.593688 0.12376,-1.191829 0.0489,-1.780974 -0.0576,-0.453099 -0.22714,-0.886005 -0.37896,-1.316778 -0.17575,-0.498687 -0.31117,-1.029161 -0.614,-1.462604 -0.37846,-0.541705 -1.15573,-0.758819 -1.45242,-1.349287 -0.14572,-0.290002 0.0709,-0.69573 -0.10596,-0.96787 -0.40303,-0.620231 -1.4658,-0.531035 -1.91755,-1.116732 -0.20412,-0.264647 -0.18185,-0.643256 -0.26798,-0.966189 -0.0682,-0.255837 -0.0325,-0.562058 -0.19709,-0.769503 -0.20845,-0.262796 -0.67769,-0.207307 -0.8924,-0.465013 -0.49617,-0.595526 -0.21539,-1.60538 -0.68464,-2.222336 -0.2424,-0.318694 -0.74371,-0.349989 -1.01185,-0.647347 -0.27798,-0.308268 -0.2799,-0.805684 -0.55943,-1.112546 -0.28193,-0.309492 -0.6886,-0.482322 -1.06473,-0.66615 -0.62149,-0.303745 -1.31346,-0.439496 -1.94934,-0.711831 -1.28254,-0.549283 -2.52182,-1.197021 -3.75209,-1.855082 -0.73081,-0.390904 -1.35556,-1.019288 -2.15379,-1.24226 -0.37593,-0.105009 -0.78928,0.05763 -1.17069,-0.0253 -0.61792,-0.134349 -1.15288,-0.521466 -1.74241,-0.750221 -1.50092,-0.582407 -3.024,-1.110673 -4.56339,-1.582079 -0.46755,-0.143178 -0.93028,-0.335521 -1.41741,-0.377976 -0.72444,-0.06314 -2.17336,0.188987 -2.17336,0.188987 v 0 c 0,0 -1.76221,-0.157469 -2.64584,-0.188987 -0.97582,-0.03481 -1.95369,-0.04001 -2.92931,0 -0.5242,0.0215 -1.16305,-0.203888 -1.56865,0.128887 -0.25672,0.210626 -0.27398,0.957794 -0.27398,0.957794 v 0 l 0.66145,0.425224 c 0,0 -4.2576,1.194357 -6.44802,1.337598 -0.90258,0.05902 -1.80188,-0.22325 -2.7061,-0.200453 -0.35902,0.0091 -1.06909,0.133636 -1.06909,0.133636 0,0 0.014,0.474083 -0.10022,0.668173 -0.1853,0.314811 -0.55072,0.488248 -0.86863,0.668174 -0.29156,0.16501 -0.60955,0.289846 -0.93544,0.367496 -0.69635,0.165917 -0.96813,0.291235 -2.13815,0.200452 -0.19422,-0.01507 0.40631,0.599985 0.53454,0.935442 0.11387,0.297873 0.12837,0.624807 0.20046,0.935445 0.12456,0.536725 0.4009,1.603616 0.4009,1.603616 0,0 -0.81899,0.0093 -1.20271,0.133636 -0.4507,0.146084 -0.87853,0.390783 -1.23612,0.701582 -0.22993,0.199846 -0.55747,0.724223 -0.55747,0.724223 v 0 c 0,0 -0.10045,0.542703 -0.10427,0.817326 -0.003,0.186719 -0.0502,0.403427 0.0554,0.557468 0.21229,0.309789 0.83829,0.408314 1.00534,0.50854 0.16704,0.100226 -0.96689,0.967173 -0.96689,0.967173 0,0 -0.27416,0.465215 -0.37855,0.713336 -0.0664,0.157816 -0.10837,0.324921 -0.15599,0.489379 -0.0736,0.254256 -0.0984,0.524155 -0.20045,0.768397 -0.0768,0.183764 -0.34775,0.318995 -0.30531,0.51358 0.0235,0.107659 0.23505,0.08416 0.2719,0.188003 0.0931,0.262371 -0.14697,0.53731 -0.23386,0.801809 -0.2628,0.799957 -0.60094,1.573683 -0.86863,2.372018 -0.0524,0.156435 -0.16168,0.309367 -0.1444,0.473454 0.0224,0.213061 0.25139,0.356566 0.31145,0.562216 0.05,0.171368 0.0405,0.35615 0.0334,0.534537 -0.025,0.629463 -0.26727,1.870888 -0.26727,1.870888 l 0.56795,0.534537 c 0,0 -0.63057,1.232461 -0.4009,1.80407 0.0299,0.07451 0.19728,0.0534 0.20045,0.133635 0.007,0.166233 -0.43141,0.147133 -0.3921,0.308785 0.0663,0.272576 0.707,-0.0949 0.82641,0.158938 0.11696,0.248618 -0.51358,0.474435 -0.39615,0.722831 0.0865,0.182951 0.4893,-0.05919 0.59661,0.112384 0.15366,0.245671 -0.3709,0.585862 -0.22912,0.838576 0.13533,0.241205 0.63727,0.0048 0.79706,0.230502 0.26064,0.368224 -0.14755,0.905492 -0.0776,1.351169 0.0518,0.329891 0.24908,0.619866 0.36106,0.934461 0.1122,0.315217 0.20953,0.635542 0.31118,0.954318 0.0968,0.303548 0.19333,0.607218 0.28446,0.912516 0.10131,0.33941 0.18969,0.682598 0.29159,1.021831 0.0719,0.239493 0.22845,0.465371 0.22575,0.71542 -0.002,0.214527 -0.0904,0.429321 -0.20688,0.609465 -0.13724,0.212186 -0.31965,0.424112 -0.5548,0.516647 -0.23834,0.09379 -0.7684,0 -0.7684,0 l -0.3675,1.703843 0.90204,0.03341 c 0,0 -0.0417,0.668091 -0.0334,1.00226 0.01,0.402169 0.0644,0.802013 0.10022,1.202714 0.0209,0.233989 0.009,0.473961 0.0668,0.701582 0.0629,0.246528 0.18328,0.475856 0.30068,0.701582 0.12691,0.244015 0.2956,0.464074 0.43431,0.701583 0.12819,0.219501 0.23712,0.449969 0.3675,0.668173 0.11566,0.193572 0.30746,0.350597 0.3675,0.567949 0.2522,0.912977 -0.0835,1.892719 -0.10023,2.839739 -0.009,0.489918 -0.052,0.98275 0,1.469983 0.0616,0.577733 0.15967,1.161274 0.36749,1.703842 0.0963,0.251532 0.21712,0.50468 0.40091,0.701583 0.13699,0.146761 0.50113,0.334086 0.50113,0.334086 l 0.20045,-0.200453 c 0,0 -0.0313,0.378317 -0.0334,0.567949 -0.0167,1.515459 0.073,3.030953 0.16705,4.543581 0.0396,0.635974 0.098,1.270847 0.16704,1.904296 0.084,0.770345 0.12314,1.550903 0.30068,2.305199 0.14846,0.630774 0.39221,1.236575 0.63476,1.837478 0.25736,0.637585 0.5382,1.267926 0.86863,1.870887 0.6666,1.216396 1.30426,2.482533 2.23838,3.507912 0.42754,0.469315 1.07664,0.699265 1.50339,1.169305 0.26582,0.292785 0.41446,0.673854 0.63477,1.00226 0.23583,0.351547 0.50597,0.679646 0.73499,1.035669 0.21597,0.335735 0.49017,0.652267 0.60135,1.035672 0.0807,0.278291 0.0238,0.579027 0.0334,0.868624 0.0133,0.400839 0.18172,0.830088 0.0334,1.202714 -0.1922,0.48287 -0.72607,0.744133 -1.10248,1.102487 -0.34832,0.331608 -0.7278,0.630005 -1.06908,0.968852 -1.33111,1.32163 -2.54772,2.753875 -3.80859,4.142676 -0.58311,0.642271 -1.73725,1.937705 -1.73725,1.937705 l 0.83521,2.138156 c 0,0 -0.81355,0.540626 -1.20271,0.835218 -0.39109,0.296045 -0.68657,0.738728 -1.1359,0.935443 -0.52515,0.229909 -1.16139,0.04842 -1.70384,0.23386 -0.40126,0.137173 -0.72791,0.435991 -1.10249,0.634767 -0.42675,0.226457 -0.87116,0.418044 -1.30294,0.634764 -0.99712,0.500486 -1.98595,1.017424 -2.97337,1.536801 -0.79369,0.417481 -1.59153,0.827855 -2.37202,1.269525 -0.86931,0.49194 -1.73736,0.98881 -2.57247,1.5368 -0.81393,0.53408 -1.59231,1.12092 -2.37201,1.70384 -0.50847,0.38014 -1.06837,0.70691 -1.50339,1.16931 -0.35135,0.37346 -0.54684,0.87033 -0.86863,1.26953 -0.34607,0.42932 -0.81657,0.75314 -1.13589,1.20271 -0.39226,0.55226 -0.62064,1.20428 -0.93545,1.80407 -0.18754,0.3573 -0.36541,0.72007 -0.56795,1.06908 -0.25122,0.4329 -0.66902,0.78695 -0.8018,1.26953 -0.1123,0.40815 0.10068,0.85159 0.0334,1.26953 -0.047,0.29214 -0.20969,0.55366 -0.30067,0.83522 -0.65581,2.02966 -1.09227,4.12661 -1.7653,6.15062 -0.30826,0.92704 -0.72721,1.81462 -1.03944,2.74033 -0.21261,0.63035 -0.40294,1.26879 -0.56696,1.9135 -0.14889,0.58523 -0.29072,1.17422 -0.37798,1.77176 -0.0856,0.58626 -0.10857,1.18022 -0.14174,1.77177 -0.0274,0.48771 -0.0212,0.97688 -0.0472,1.46466 -0.0282,0.5283 -0.0291,1.06126 -0.11812,1.58277 -0.13727,0.80401 -0.44658,1.56944 -0.63783,2.36235 -0.17744,0.73568 -0.35766,1.4726 -0.47247,2.22061 -0.1008,0.65676 -0.10282,1.32554 -0.18899,1.98438 -0.087,0.66492 -0.25392,1.3182 -0.33073,1.98437 -0.1681,1.45804 -0.0919,2.93883 -0.28348,4.39397 -0.0943,0.71656 -0.28811,1.4165 -0.42522,2.12612 -0.17931,0.92804 -0.44274,1.84552 -0.51972,2.78758 -0.0603,0.73791 0.17361,1.49111 0.0472,2.22061 -0.27916,1.61101 -1.28968,3.01354 -1.74814,4.58296 -0.26156,0.89536 -0.3296,1.83824 -0.56697,2.74032 -0.34095,1.29567 -0.84942,2.54196 -1.22842,3.82701 -0.23991,0.81347 -0.36646,1.6617 -0.66146,2.45685 -0.30382,0.81892 -0.79408,1.55771 -1.13393,2.36235 -0.71203,1.68583 -1.21038,3.45542 -1.89157,5.15395 -0.17635,0.43974 -0.42033,0.85274 -0.56795,1.30294 -0.18856,0.57503 -0.31402,1.17177 -0.4009,1.77066 -0.0977,0.67372 -0.0871,1.35875 -0.13364,2.03793 -0.0641,0.93563 -0.13339,1.8709 -0.20045,2.80633 -0.11097,1.54797 -0.28739,3.09258 -0.33409,4.64381 -0.0288,0.95735 0.0635,1.91584 0.0334,2.87315 -0.0235,0.74783 -0.18987,1.49053 -0.16704,2.23838 0.008,0.24715 0.0574,0.49147 0.10022,0.73499 0.14615,0.83036 0.55627,1.6294 0.53454,2.47224 -0.0143,0.55361 -0.28994,1.06897 -0.43431,1.60362 -0.0782,0.28949 -0.19942,0.57076 -0.23386,0.86863 -0.0781,0.67517 -0.10439,1.38016 0.0668,2.03792 0.0978,0.37597 0.43279,0.66074 0.53454,1.03567 0.16356,0.60272 0.0791,1.24672 0.10022,1.87089 0.0534,1.5806 0.33802,3.18597 0.0668,4.74404 -0.13054,0.74991 -0.49755,1.44042 -0.80181,2.13815 -0.1493,0.34238 -0.41368,0.63912 -0.50113,1.00226 -0.28943,1.20181 -0.0839,2.47323 -0.0334,3.70837 0.0552,1.35191 0.34534,2.68959 0.3675,4.04245 0.0126,0.76959 -0.37784,1.57528 -0.13364,2.3052 0.15291,0.45706 0.93545,1.10249 0.93545,1.10249 v 1.63702 l 1.9377,0.7684 c 0,0 0.0415,5.13325 -0.20045,7.684 -0.0842,0.88761 0.0863,1.91546 -0.43431,2.63929 -0.25015,0.34781 -1.1359,0.60135 -1.1359,0.60135 0,0 -0.0955,0.86737 -0.10023,1.30294 -0.0111,1.01486 -0.24693,2.11353 0.16705,3.04019 0.10278,0.23007 0.46772,0.33409 0.53453,0.53454 0.0668,0.20045 0.0114,1.82943 -0.0668,2.73952 -0.0521,0.60568 0.0406,1.27988 -0.26727,1.80406 -0.0925,0.15749 -0.32712,0.1862 -0.43431,0.33409 -0.23564,0.3251 -0.32607,0.74141 -0.40091,1.13589 -0.11632,0.61309 0.0297,1.25437 -0.0668,1.87089 -0.1396,0.89165 -0.52167,1.72894 -0.73499,2.60588 -0.20958,0.86159 -0.34812,1.73898 -0.53454,2.60588 -0.19198,0.89276 -0.36474,1.79071 -0.60135,2.67269 -0.19348,0.72121 -0.43874,1.42757 -0.66818,2.13816 -0.23805,0.73727 -0.50755,1.46436 -0.73499,2.20497 -0.21735,0.70775 -0.384,1.43041 -0.60135,2.13816 -0.28947,0.9426 -0.57633,1.88801 -0.93545,2.80633 -0.4294,1.09806 -1.30247,2.05501 -1.45452,3.22421 -0.0618,0.47498 0.18565,0.94109 0.23624,1.4174 0.0716,0.67413 -0.009,1.36165 0.0945,2.03163 0.0748,0.4832 0.25163,0.94501 0.37798,1.4174 0.17275,0.64584 0.35874,1.28825 0.51972,1.93714 0.2217,0.89366 0.74949,1.78232 0.61421,2.69306 -0.0746,0.50237 -0.47934,0.89697 -0.75595,1.32292 -0.15955,0.24569 -0.46328,0.42124 -0.51972,0.70871 -0.0876,0.44604 0.33623,0.86839 0.33073,1.32292 -0.006,0.47374 -0.2653,0.90998 -0.37798,1.37017 -0.10726,0.43802 -0.29518,0.87207 -0.28348,1.32292 0.011,0.42389 0.31682,0.80457 0.33073,1.22841 0.0184,0.56181 -0.20312,1.10619 -0.33073,1.65364 -0.3885,1.66674 -0.83029,3.32192 -1.32292,4.96094 -0.22129,0.73623 -0.60166,1.42933 -0.73285,2.18683 -0.19386,1.11946 0.26034,2.31968 -0.0668,3.40768 -0.22774,0.75739 -0.8914,1.30987 -1.26953,2.00453 -0.30492,0.56018 -0.55898,1.1475 -0.80181,1.73726 -0.29776,0.72316 -0.48531,1.48979 -0.8018,2.20496 -0.38704,0.8746 -1.01478,1.63832 -1.33635,2.53907 -0.37449,1.04899 -0.55625,2.16583 -0.66818,3.27403 -0.0873,0.86424 -0.0557,1.73903 0,2.60588 0.0446,0.69475 0.20028,1.3784 0.26727,2.07135 0.0666,0.68866 0.0157,1.38959 0.13364,2.07134 0.1106,0.63908 0.4142,1.23357 0.53454,1.8709 0.0872,0.46167 0.13363,1.40316 0.13363,1.40316 0,0 -0.58,0.39958 -0.86862,0.60135 -0.37985,0.26553 -0.84656,0.43976 -1.1359,0.80182 -0.43639,0.54604 -0.52093,1.29759 -0.80181,1.9377 -0.27628,0.6296 -0.59874,1.23849 -0.86862,1.87087 -0.38476,0.90157 -0.79373,1.79874 -1.06908,2.73952 -0.28711,0.98094 -0.34686,2.01684 -0.60136,3.00678 -0.22099,0.8596 -0.6208,1.67015 -0.80181,2.53907 -0.17356,0.83312 -0.16253,1.69447 -0.26727,2.53905 -0.1163,0.93776 0.009,1.95482 -0.4009,2.80633 -0.22546,0.46852 -0.74311,0.7308 -1.06908,1.13591 -0.32144,0.39947 -0.69022,0.7888 -0.86862,1.26952 -0.21051,0.56724 -0.20046,1.80406 -0.20046,1.80406 l 8.48581,7.88445 32.35209,-8.34757 c 0,0 1.14417,-3.4185 2.18995,-4.85204 1.04091,-1.42687 2.62481,-2.36389 3.93328,-3.5502 1.27252,-1.15372 2.84343,-2.0496 3.8099,-3.46956 1.26271,-1.85524 1.41332,-4.27363 2.39117,-6.29357 0.57906,-1.19618 1.43003,-2.24435 2.045,-3.42244 1.15918,-2.22064 2.0313,-4.57999 3.08892,-6.85077 0.78955,-1.69522 1.70696,-3.33193 2.43096,-5.05616 1.07344,-2.55641 2.05707,-5.15912 2.82815,-7.82238 0.74735,-2.58133 1.73348,-7.87348 1.73348,-7.87348 0,0 2.25307,3.21501 3.05521,4.99399 0.74563,1.65367 1.05195,3.47223 1.59866,5.20189 0.54038,1.70963 1.28772,3.36227 1.66205,5.11577 0.3895,1.82452 0.29274,3.72423 0.595,5.56522 0.39964,2.43409 1.60738,7.22337 1.60738,7.22337 0,0 1.51691,5.73471 2.03664,8.65139 0.20041,1.1247 0.31485,2.26397 0.41532,3.40194 0.12723,1.44108 0.0349,2.90105 0.23702,4.33353 0.1713,1.21422 0.41318,2.42975 0.82316,3.58542 0.65792,1.85457 2.60036,5.29987 2.60036,5.29987 l 21.84336,7.10576 z"
         id="path1881"
         sodipodi:nodetypes="caaaaaaaccaaaacaaaacaaaaaacaaaacaaaaaaaaaaaaaaacaaaaacaccaaaaaaacaaaaacaaaaaccaaaaaaaaaaaaaaaacaaaaaccccccccccccccaaaaaaaaaaaaaaaaacaaaaaaaacaaaaaaacaaaaaaaaaaaaaaaaaaaaaaaaaaaaaaaaaaaaaaaaaaaaaaaaaaaaaacacaacaaasaacaaaaaascaaaaaaaaaaccaaaaaaaaaaaaaaaacccaaaaaaaaaaaccaaaaaaaaaaaaaaaaccaaaaaaaaaaaaaaaaaaaaaaaaaaaaaaaaaaaaaaaaaaaaaaaaaaaaaaaaaacccaacaasaaaaaaaaaaaaaaaaaaaaaaaaaaaaaaaaaaaaacaaaaaaaaaaacccaaaaaaaacaaaacaaaaccc" />
    </clipPath>
  </defs>
  <sodipodi:namedview
     id="base"
     pagecolor="#ffffff"
     bordercolor="#666666"
     borderopacity="1.0"
     inkscape:pageopacity="0.0"
     inkscape:pageshadow="2"
     inkscape:zoom="0.35"
     inkscape:cx="400"
     inkscape:cy="560"
     inkscape:document-units="mm"
     inkscape:current-layer="layer1"
     inkscape:document-rotation="0"
     showgrid="false"
     inkscape:window-width="1517"
     inkscape:window-height="1040"
     inkscape:window-x="234"
     inkscape:window-y="0"
     inkscape:window-maximized="0" />
  <metadata
     id="metadata866">
    <rdf:RDF>
      <cc:Work
         rdf:about="">
        <dc:format>image/svg+xml</dc:format>
        <dc:type
           rdf:resource="http://purl.org/dc/dcmitype/StillImage" />
        <dc:title></dc:title>
      </cc:Work>
    </rdf:RDF>
  </metadata>
  <g
     inkscape:label="Camada 1"
     inkscape:groupmode="layer"
     id="layer1">
    <image
       sodipodi:absref="C:\Users\Tiago Rodrigues\Desktop\119864900_3358658704171321_6708245020866729326_o - Cópia.jpg"
       xlink:href="../../../../Desktop/119864900_3358658704171321_6708245020866729326_o%20-%20C%C3%B3pia.jpg"
       transform="matrix(0.91087268,0,0,0.91087268,-54.217248,-11.512229)"
       clip-path="url(#clipPath1879)"
       style="opacity:1;fill:url(#meshgradient869);fill-opacity:1"
       y="-42.333332"
       x="-89.202377"
       id="image857"
       preserveAspectRatio="none"
       height="381"
       width="381" />
  </g>
</svg>
